<?xml version="1.0" standalone="no"?>
<!DOCTYPE svg PUBLIC "-//W3C//DTD SVG 20010904//EN"
 "http://www.w3.org/TR/2001/REC-SVG-20010904/DTD/svg10.dtd">
<svg version="1.0" xmlns="http://www.w3.org/2000/svg"
 width="300.000000pt" height="300.000000pt" viewBox="0 0 300.000000 300.000000"
 preserveAspectRatio="xMidYMid meet">
<metadata>
Created by potrace 1.10, written by Peter Selinger 2001-2011
</metadata>
<g transform="translate(0.000000,300.000000) scale(0.100000,-0.100000)"
fill="#000000" stroke="none">
<path d="M1343 2240 c-76 -46 -247 -325 -292 -475 -18 -59 -50 -236 -51 -285
-1 -8 -16 26 -34 75 -46 127 -179 406 -199 419 -13 8 -23 4 -46 -18 -63 -61
-108 -211 -120 -401 -11 -173 -58 -500 -77 -537 -40 -76 -159 -28 -221 89 -84
156 -60 403 50 528 l44 50 17 -32 c9 -18 16 -55 16 -86 0 -66 -39 -206 -80
-286 -32 -64 -28 -81 22 -81 69 0 131 50 169 135 31 69 39 236 15 299 -23 59
-55 87 -109 93 -62 7 -108 -10 -167 -64 -90 -81 -140 -211 -140 -364 0 -160
65 -297 165 -348 82 -43 236 -32 316 22 63 42 95 104 108 209 9 71 39 505 41
598 1 30 17 -13 25 -64 19 -134 128 -514 173 -606 21 -43 58 -58 98 -39 l29
14 -3 95 c-4 122 12 318 37 448 38 198 134 380 274 523 49 50 76 86 73 95 -8
22 -94 18 -133 -6z m47 -36 c0 -3 -25 -34 -56 -67 -68 -75 -155 -219 -194
-319 -55 -142 -95 -419 -88 -615 1 -45 -1 -86 -5 -90 -38 -37 -111 155 -193
506 -36 156 -58 197 -89 171 -31 -26 -36 -52 -50 -278 -25 -397 -32 -429 -95
-486 -22 -20 -45 -36 -50 -36 -12 0 -12 3 -1 33 15 38 51 315 66 502 10 125
21 192 39 250 27 84 59 145 76 145 11 0 87 -156 156 -319 49 -116 79 -158 101
-139 25 20 33 45 53 155 22 123 44 191 90 283 69 138 195 310 226 310 8 0 14
-3 14 -6z m-891 -550 c67 -85 41 -298 -46 -379 -27 -25 -63 -34 -63 -16 0 5 9
30 20 56 37 87 62 206 57 270 -3 33 -8 68 -12 78 -11 27 20 21 44 -9z m-277
-228 c-25 -156 3 -293 79 -389 36 -44 31 -60 -9 -30 -37 28 -80 100 -97 164
-18 68 -19 198 -1 264 13 51 35 100 41 93 2 -2 -4 -48 -13 -102z"/>
<path d="M1922 2208 c-3 -12 -29 -69 -57 -128 l-52 -105 -131 -38 c-165 -48
-236 -49 -262 -3 -19 35 -38 44 -46 23 -10 -26 24 -75 72 -103 55 -32 160 -43
244 -25 29 6 55 9 57 7 10 -9 -56 -145 -98 -201 -24 -34 -53 -78 -64 -98 -11
-20 -22 -37 -26 -37 -4 0 -9 21 -12 47 -6 56 -33 83 -84 83 -69 0 -101 -41
-105 -135 -2 -52 0 -60 25 -81 16 -13 35 -24 43 -24 19 0 18 -20 -7 -82 -21
-55 -89 -168 -101 -168 -4 0 -12 26 -19 58 -14 70 -7 227 16 337 21 99 39 135
66 135 39 0 13 25 -29 28 -35 3 -47 -2 -71 -25 -31 -32 -63 -109 -93 -227 -16
-61 -19 -101 -16 -175 5 -110 25 -164 69 -186 36 -19 100 -19 144 -1 59 25
131 145 156 261 7 36 23 72 39 91 14 16 36 47 49 68 28 45 36 41 21 -11 -6
-21 -13 -85 -17 -143 -7 -133 10 -201 66 -260 33 -35 43 -40 84 -40 25 0 57 4
70 9 49 19 100 75 132 146 l32 70 16 -37 c56 -134 230 -139 296 -10 10 21 42
100 70 177 28 77 66 173 83 213 l31 73 16 -25 c9 -14 47 -48 83 -76 40 -29 78
-69 94 -96 64 -108 32 -309 -66 -411 -29 -32 -38 -29 -60 20 -42 96 -33 191
25 276 40 58 33 71 -37 71 -39 0 -54 -6 -83 -32 -51 -44 -77 -101 -83 -181
-11 -157 82 -259 224 -244 159 16 250 144 248 347 0 114 -19 150 -144 270
-114 110 -128 140 -110 237 9 49 50 133 65 133 10 0 33 -57 40 -97 4 -26 12
-43 20 -43 21 0 39 78 29 120 -11 44 -45 62 -102 57 -83 -9 -164 -110 -178
-222 -5 -36 -22 -76 -64 -145 -32 -52 -72 -130 -89 -173 -57 -143 -127 -267
-151 -267 -15 0 -40 99 -40 155 0 29 3 80 6 114 l7 61 42 0 c52 0 73 21 81 82
7 54 -10 114 -36 128 -10 6 -33 10 -51 10 -49 0 -88 -49 -127 -161 -57 -159
-169 -377 -238 -458 -33 -39 -47 -30 -64 40 -22 90 18 372 80 573 16 54 30
104 30 112 0 30 224 74 418 81 89 3 165 10 168 14 9 15 -43 57 -87 71 -67 20
-256 15 -364 -9 -49 -12 -91 -20 -92 -19 -1 1 7 35 18 76 24 93 25 150 3 150
-9 0 -18 -10 -22 -22z m-17 -218 c22 -24 45 -25 148 -5 43 8 106 15 140 14
l62 -1 -87 -13 c-133 -19 -267 -55 -295 -79 -17 -15 -34 -54 -59 -135 -77
-255 -110 -547 -71 -635 l17 -38 -22 14 c-58 39 -81 161 -59 318 8 61 7 80 -4
104 -21 40 -20 43 25 106 40 58 80 147 80 178 0 41 -25 57 -84 54 -31 -1 -56
0 -56 3 0 2 39 17 87 32 64 19 95 35 115 57 16 17 28 34 28 38 0 14 17 8 35
-12z m677 -171 c-3 -87 -2 -94 27 -140 17 -27 27 -49 23 -49 -6 0 -85 61 -110
85 -7 6 29 150 43 171 8 13 16 24 18 24 1 0 1 -41 -1 -91z m-365 -177 c-6 -57
-20 -83 -36 -66 -6 5 -6 28 0 59 14 70 17 77 30 69 8 -4 10 -26 6 -62z m-89
-110 c-9 -17 -13 -64 -13 -141 0 -100 3 -122 22 -160 12 -25 21 -47 19 -49
-10 -10 -66 31 -86 63 -30 48 -51 58 -80 38 -12 -9 -21 -12 -19 -7 2 5 25 50
50 99 26 50 52 108 59 130 7 22 22 63 34 90 l21 50 3 -44 c2 -25 -3 -56 -10
-69z m-673 -111 c-4 -3 -13 3 -22 14 -17 23 -12 100 9 137 12 20 13 14 16 -61
2 -46 0 -86 -3 -90z m1345 56 c16 -28 32 -74 35 -102 14 -108 -38 -258 -104
-302 -55 -37 -63 -28 -26 33 54 89 70 147 70 250 0 83 -3 96 -32 153 l-32 62
30 -22 c16 -11 43 -44 59 -72z m-1540 -26 c-16 -115 -9 -261 15 -297 26 -40 3
-52 -28 -15 -32 38 -42 98 -34 205 6 76 43 214 55 202 3 -3 -1 -46 -8 -95z
m272 -14 c-11 -17 -25 -57 -32 -87 -15 -66 -62 -163 -95 -196 -40 -40 -47 -27
-11 24 45 63 77 137 81 189 2 23 8 51 14 62 6 11 11 33 11 49 0 40 10 45 32
17 19 -25 19 -25 0 -58z m1028 -34 c0 -5 -10 -33 -21 -63 -32 -80 -30 -169 4
-243 24 -52 24 -57 8 -57 -29 0 -72 40 -92 84 -37 81 -19 188 41 248 35 35 60
48 60 31z"/>
<path d="M1610 989 c-226 -19 -447 -62 -640 -124 -134 -44 -230 -89 -230 -110
0 -33 34 -32 180 1 394 91 715 110 1124 68 161 -16 284 -18 320 -4 32 12 33
38 5 74 -28 35 -57 49 -159 76 -71 18 -118 22 -290 25 -113 2 -252 -1 -310 -6z
m562 -53 c86 -19 161 -52 156 -68 -7 -20 -101 -21 -266 -3 -215 23 -457 29
-607 16 -129 -11 -391 -46 -430 -57 -14 -4 -17 -3 -10 4 14 15 180 59 311 82
100 17 240 34 379 44 101 8 401 -4 467 -18z"/>
</g>
</svg>
